<svg xmlns="http://www.w3.org/2000/svg" width="400" height="400" viewBox="0 0 400 400">
  <g fill="none" fill-rule="evenodd">
    <rect width="400" height="400"/>
    <path fill="#FFF" d="M142.700196,231.568473 C144.544282,235.68838 145.064893,239.649243 144.262046,243.451183 C143.4592,247.253124 141.495994,250.123768 138.372371,252.063204 C135.248748,254.00264 131.680407,254.543032 127.667241,253.684396 C125.070486,253.128809 122.270204,251.784616 119.266311,249.651777 C114.267799,244.111895 108.686609,237.826531 102.522575,230.795496 C96.3585405,223.76446 90.1016547,216.589468 83.7517296,209.270303 C77.4018046,201.951138 71.157463,194.716741 65.0185176,187.566895 C58.8795721,180.417049 53.1928942,174.047027 47.9583132,168.456637 C44.9840624,163.84657 43.9234653,159.52182 44.7764902,155.482259 C45.7800488,150.729834 48.9007676,147.051343 54.13874,144.446675 L63.4608131,139.735568 C68.2945047,137.29276 74.1388108,134.445346 80.9939067,131.193241 C87.8490025,127.941136 95.0743427,124.395788 102.670144,120.557089 C110.265945,116.71839 117.491285,113.173041 124.346381,109.920937 C131.201477,106.668832 137.117344,103.77464 142.094158,101.238275 C147.070973,98.7019102 150.106739,97.1783346 151.201548,96.6675026 C154.521329,96.1359998 179.100448,90.0888895 181.55547,101.449767 L168.13804,152.22652 L83.0946798,163.308077 C87.0633829,167.882555 91.6863394,173.155753 96.9636878,179.127828 C102.241036,185.099903 107.552233,191.203325 112.897438,197.438275 C118.242643,203.673226 123.55384,209.776647 128.831188,215.748722 C134.108536,221.720798 138.731493,226.993995 142.700196,231.568473 Z M229.665965,269.074438 C235.417319,267.23602 242.088411,265.141376 249.679444,262.790444 C257.270476,260.439511 264.957877,257.994826 272.741878,255.456315 C280.525879,252.917804 288.21328,250.473119 295.804312,248.122186 C303.395345,245.771254 310.066437,243.67661 315.817791,241.838193 L248.487637,188.975357 L262.990114,139.177795 C270.919766,130.826831 288.921821,148.510281 291.499451,150.657497 C292.177552,151.649347 294.002956,154.490187 296.975718,159.180102 C299.948479,163.870017 303.544036,169.342748 307.762496,175.598459 C311.980956,181.85417 316.366991,188.54719 320.920733,195.67772 C325.474475,202.80825 329.86051,209.50127 334.07897,215.756981 C338.29743,222.012692 341.855524,227.409272 344.75336,231.946882 L350.342015,240.697943 C353.503976,245.579173 354.297995,250.285607 352.724098,254.817386 C351.386285,258.669399 348.259494,261.783903 343.343632,264.160993 C335.984915,266.211052 327.838544,268.689142 318.904272,271.595337 C309.970001,274.501531 300.901919,277.425319 291.699754,280.366787 C282.497589,283.308256 273.44918,286.175397 264.554256,288.968297 C255.659332,291.761197 247.646906,294.22165 240.516735,296.349731 C236.844915,296.616973 233.752045,296.321484 231.238034,295.463254 C227.352743,294.1369 224.566282,291.855051 222.878567,288.617638 C221.190851,285.380224 220.976556,281.948858 222.235674,278.323434 C223.494792,274.698011 225.971531,271.615043 229.665965,269.074438 Z M221.759283,67.8580224 C224.225819,63.4868857 227.087628,60.4753369 230.344796,58.8232855 C233.601965,57.1712341 236.897241,56.7845811 240.230724,57.6633148 C243.326102,58.4792819 245.955759,60.3022649 248.119774,63.1323185 C250.28379,65.9623721 251.354944,69.7596195 251.333268,74.5241747 L181.472293,331.025008 C179.76678,336.349957 177.059051,339.967014 173.349023,341.876288 C169.638995,343.785562 165.998241,344.269442 162.426652,343.327941 C159.093169,342.449207 156.332784,340.403466 154.145416,337.190657 C151.958048,333.977847 151.209019,329.700623 151.898308,324.358855 L221.759283,67.8580224 Z"/>
  </g>
</svg>
