<svg width="58" height="58" viewBox="0 0 58 58" fill="none"
    xmlns="http://www.w3.org/2000/svg">
    <path fill-rule="evenodd" clip-rule="evenodd" d="M50 12V34C54 32.207 58 27.965 58 23C58 18.033 54 13.793 50 12ZM42.584 0.65941C42.516 0.733388 35.678 8.01431 26.02 8.01431C12.061 8.01431 0 8.0143 0 23.01C0 32.3353 4.666 35.8583 11.549 37.192C11.549 37.192 18.133 53.0694 18.539 53.9502C20.084 57.2972 22.66 58 24.549 58C28.16 58 30.716 54.575 29.754 50.8091C29.639 50.3632 26.672 38.0367 26.672 38.0367C35.924 38.3576 42.512 45.2846 42.582 45.3626C43.802 46.6752 46 45.9205 46 44.2329V1.78709C46 0.183546 43.824 -0.679207 42.584 0.65941Z" fill="#565D64"/>
</svg>
