<svg width="44" height="44" viewBox="0 0 44 44" fill="none"
    xmlns="http://www.w3.org/2000/svg">
    <path fill-rule="evenodd" clip-rule="evenodd" d="M31.2484 22.0007L43.0924 10.1607C44.1234 9.12974 44.2974 7.58474 43.5044 6.59674C41.6914 4.33674 39.6604 2.30574 37.4024 0.498738C36.4204 -0.296262 34.8754 -0.120262 33.8444 0.910738L22.0024 12.2507L10.1544 0.904738C9.12936 -0.122262 7.58036 -0.298262 6.59436 0.496738C4.34436 2.30574 2.30936 4.33874 0.50036 6.59274C-0.30064 7.58074 -0.12264 9.12774 0.91036 10.1547L12.7544 22.0007L0.90636 33.8467C-0.12064 34.8737 -0.29664 36.4187 0.49836 37.4067C2.30736 39.6567 4.34036 41.6917 6.59436 43.5007C7.58236 44.2997 9.12936 44.1217 10.1564 43.0907L22.0004 31.2467L33.8404 43.0907C34.8714 44.1217 36.4164 44.2957 37.4044 43.5007C39.6644 41.6897 41.6954 39.6587 43.5044 37.4007C44.2974 36.4187 44.1214 34.8737 43.0924 33.8427L31.2484 22.0007Z" fill="#565D64"/>
</svg>
