<svg xmlns="http://www.w3.org/2000/svg" width="116" height="108" viewBox="0 0 116 108">
  <g fill="#3E91FF" fill-rule="evenodd">
    <path d="M38.8638869 68.1351424C39.5073476 69.57271 39.6890057 70.9547825 39.4088666 72.2814014 39.1287276 73.6080204 38.4437022 74.6096805 37.3537699 75.2864118 36.2638375 75.9631432 35.0187288 76.1517033 33.6184062 75.8520979 32.7123152 75.6582356 31.735207 75.1892035 30.6870523 74.4449875 28.9429109 72.511945 26.9954547 70.3187797 24.8446252 67.8654257 22.6937958 65.4120718 20.5105674 62.9084866 18.2948748 60.3545951 16.0791821 57.8007035 13.9003309 55.2763902 11.7582558 52.7815794 9.61618066 50.2867686 7.6319162 48.0640634 5.80540286 46.113397 4.76759128 44.5047965 4.39751492 42.9957526 4.69516266 41.58622 5.04533648 39.9279464 6.13425543 38.6444027 7.96195216 37.7355506L11.2147227 36.0916942C12.9013528 35.23932 14.9406188 34.2457658 17.3325818 33.1110021 19.7245448 31.9762383 22.2456979 30.7391523 24.8961167 29.3997071 27.5465356 28.0602619 30.0676887 26.8231759 32.4596517 25.6884121 34.8516147 24.5536483 36.9158504 23.543772 38.6524209 22.6587528 40.3889914 21.7737337 41.4482676 21.2421093 41.8302813 21.0638636 43.5935059 20.2285156 53.6162109 18.7922363 52.4217391 22.7325491L47.9115556 39.8008309C47.8077805 40.1935561 47.476752 40.4844863 47.0739524 40.536973L18.065609 44.3168991C19.4504169 45.9130813 21.0635148 47.7530692 22.9049511 49.836918 24.7463873 51.9207668 26.5996344 54.0504464 28.4647479 56.2260208 30.3298615 58.4015952 32.1831086 60.5312748 34.0245448 62.6151236 35.8659811 64.6989723 37.479079 66.5389602 38.8638869 68.1351424zM67.2090353 76.2221773C65.9199285 77.108676 65.0557147 78.1844225 64.616368 79.4494491 64.1770213 80.7144756 64.2517959 81.9117897 64.840694 83.0414271 65.4295921 84.1710644 66.4018778 84.967275 67.7575804 85.4300825 68.6347998 85.7295462 69.7140012 85.8326519 70.9952172 85.7394025 73.4831625 84.996847 76.2789554 84.1383159 79.3826799 83.1637834 82.4864043 82.1892508 85.6436845 81.1888133 88.8546153 80.1624406 92.0655461 79.1360679 95.2296911 78.1158645 98.3471451 77.1018 101.464599 76.0877354 104.30713 75.2230503 106.874822 74.5077187 108.590124 73.6782757 109.681162 72.5915252 110.147968 71.2474344 110.697151 69.6661512 110.420092 68.0239253 109.316783 66.3207074L107.366721 63.2671813C106.355574 61.6838635 105.11404 59.8008236 103.642084 57.6180053 102.170128 55.4351869 100.6397 53.0997773 99.0507529 50.6117065 97.4618062 48.1236357 95.9313778 45.7882262 94.4594217 43.6054078 92.9874656 41.4225894 91.7328604 39.5129779 90.6955685 37.8765161 89.6582766 36.2400542 89.0213345 35.248794 88.7847232 34.9027056 87.3457031 32.7919922 80.3010254 26.2080078 78.8369005 30.8970692L73.9654789 47.6242056C73.8513184 48.0162014 73.9869249 48.4382316 74.3080551 48.6903601L97.2701725 66.7185771C95.2633408 67.3600601 92.9355824 68.0909485 90.2868275 68.9112643 87.6380726 69.7315801 84.9556916 70.5846092 82.2396039 71.4703772 79.5235163 72.3561452 76.8411352 73.2091743 74.1923803 74.0294902 71.5436255 74.849806 69.2158671 75.5806944 67.2090353 76.2221773zM65.4501401 8.01131118C66.3107935 6.48608129 67.3093706 5.43525523 68.4459012 4.85880147 69.5824318 4.28234771 70.7322595 4.14743206 71.8954188 4.45405048 72.9754953 4.73876759 73.8930671 5.37486487 74.6481616 6.36236141 75.4032562 7.34985795 75.7770161 8.67483946 75.7694527 10.3373457L51.392716 99.8387197C50.7976079 101.696765 49.8527941 102.958873 48.5582463 103.62508 47.2636986 104.291287 45.9933227 104.460128 44.7470806 104.131608 43.5839212 103.82499 42.6207345 103.111165 41.8574915 101.990113 41.0942485 100.86906 40.8328884 99.3765993 41.0734034 97.5126852L65.4501401 8.01131118z"/>
  </g>
</svg>
