<?xml version="1.0" encoding="UTF-8" standalone="no"?><!DOCTYPE svg PUBLIC "-//W3C//DTD SVG 1.1//EN" "http://www.w3.org/Graphics/SVG/1.1/DTD/svg11.dtd"><svg width="100%" height="100%" viewBox="0 0 201 201" version="1.1" xmlns="http://www.w3.org/2000/svg" xmlns:xlink="http://www.w3.org/1999/xlink" xml:space="preserve" xmlns:serif="http://www.serif.com/" style="fill-rule:evenodd;clip-rule:evenodd;stroke-linejoin:round;stroke-miterlimit:1.41421;"><g><rect x="0.547" y="0.508" width="200" height="200" style="fill:none;"/><path d="M149.983,69.502c-2.448,11.184 -26.249,64.007 -29.304,75.977c-2.17,8.506 9.032,19.186 10.903,12.193c5.502,-20.55 30.019,-69.376 31.389,-79.546c1.181,-8.765 -11.792,-14.088 -12.988,-8.624Zm-29.864,38.763c1.495,-0.378 3.074,0.137 4.058,1.325c0.984,1.187 1.197,2.835 0.548,4.234c0.018,0.01 0.017,0.011 0.017,0.012c-2.072,4.462 -6.162,7.657 -10.993,8.587c-2.735,0.519 -5.821,0.951 -9.253,1.277c-12.32,1.17 -25.533,-13.68 -16.589,-13.264c13.314,0.621 23.927,-0.359 32.212,-2.171Zm13.076,-13.953c-1.329,3.354 -4.253,5.817 -7.784,6.557c-16.274,3.412 -39.671,2.084 -51.207,-0.713c-11.212,-2.72 -18.582,-19.036 -11.301,-16.603c16.907,5.651 48.357,7.518 66.157,5.5c1.36,-0.188 2.719,0.361 3.568,1.44c0.85,1.08 1.063,2.528 0.561,3.807c0.009,0.004 0.009,0.004 0.006,0.012Zm6.755,-19.143c-1.094,3.597 -4.274,6.16 -8.022,6.465c-32.684,2.351 -74.669,-5.201 -86.796,-17.711c-9.113,-9.402 -8.529,-27.483 -3.347,-21.736c19.64,21.775 67.918,28.043 94.206,27.766c1.295,-0.029 2.526,0.565 3.309,1.597c0.783,1.031 1.024,2.376 0.648,3.616c0.003,0.001 0.003,0.001 0.002,0.003Z" style="fill:#F7F7F5;"/></g></svg>